/* XPM */
static char * logo_tray_xpm[] = {
"55 55 219 2",
"  	c None",
". 	c #3A3A3C",
"+ 	c #39393B",
"@ 	c #38383A",
"# 	c #373739",
"$ 	c #353537",
"% 	c #2F2F31",
"& 	c #2E2E30",
"* 	c #363638",
"= 	c #3B3B3D",
"- 	c #404041",
"; 	c #444446",
"> 	c #323234",
", 	c #303032",
"' 	c #3F3F41",
") 	c #5E5E5F",
"! 	c #8D8D8E",
"~ 	c #A6A6A7",
"{ 	c #B7B7B7",
"] 	c #C1C1C2",
"^ 	c #CACACA",
"/ 	c #D4D4D5",
"( 	c #6C6C6D",
"_ 	c #A8A8A9",
": 	c #CDCDCE",
"< 	c #C6C6C7",
"[ 	c #AAAAAA",
"} 	c #909091",
"| 	c #757577",
"1 	c #656566",
"2 	c #565657",
"3 	c #49494B",
"4 	c #6B6B6D",
"5 	c #313133",
"6 	c #3C3C3E",
"7 	c #858586",
"8 	c #C7C7C7",
"9 	c #C0C0C0",
"0 	c #8E8E90",
"a 	c #545456",
"b 	c #2F2F32",
"c 	c #343436",
"d 	c #8F8F91",
"e 	c #C2C2C3",
"f 	c #777778",
"g 	c #CECECE",
"h 	c #BABABB",
"i 	c #686869",
"j 	c #353538",
"k 	c #39393A",
"l 	c #747475",
"m 	c #48484A",
"n 	c #B5B5B5",
"o 	c #CBCBCC",
"p 	c #6A6A6C",
"q 	c #313134",
"r 	c #CACACB",
"s 	c #B4B4B5",
"t 	c #474749",
"u 	c #303033",
"v 	c #676769",
"w 	c #D6D6D7",
"x 	c #9C9C9D",
"y 	c #9B9B9C",
"z 	c #7F7F7F",
"A 	c #DADADA",
"B 	c #6D6D6F",
"C 	c #2D2D30",
"D 	c #6E6E70",
"E 	c #D9D9D9",
"F 	c #7E7E7F",
"G 	c #88888A",
"H 	c #D8D8D8",
"I 	c #565658",
"J 	c #333335",
"K 	c #2C2C2F",
"L 	c #2C2C2E",
"M 	c #2D2D2F",
"N 	c #555557",
"O 	c #DCDCDD",
"P 	c #8A8A8C",
"Q 	c #7E7E80",
"R 	c #4B4B4D",
"S 	c #626264",
"T 	c #848485",
"U 	c #9A9A9B",
"V 	c #9D9D9E",
"W 	c #989899",
"X 	c #838384",
"Y 	c #606062",
"Z 	c #535355",
"` 	c #68686A",
" .	c #DFDFE0",
"..	c #FCFCFC",
"+.	c #FFFFFF",
"@.	c #FBFBFB",
"#.	c #99999A",
"$.	c #4A4A4C",
"%.	c #656567",
"&.	c #DEDEDF",
"*.	c #E2E2E2",
"=.	c #707071",
"-.	c #6E6E6F",
";.	c #F3F3F3",
">.	c #FAFAFA",
",.	c #79797A",
"'.	c #3D3D3F",
").	c #CDCDCD",
"!.	c #4C4C4E",
"~.	c #E9E9E9",
"{.	c #F2F2F2",
"].	c #575759",
"^.	c #747476",
"/.	c #CECECF",
"(.	c #B0B0B1",
"_.	c #BFBFBF",
":.	c #CFCFCF",
"<.	c #404042",
"[.	c #BBBBBC",
"}.	c #525254",
"|.	c #F5F5F5",
"1.	c #636364",
"2.	c #323235",
"3.	c #CBCBCB",
"4.	c #69696A",
"5.	c #8F8F90",
"6.	c #A1A1A1",
"7.	c #39393C",
"8.	c #323233",
"9.	c #6D6D6E",
"0.	c #C4C4C4",
"a.	c #BEBEBF",
"b.	c #C6C6C6",
"c.	c #6C6C6E",
"d.	c #DDDDDE",
"e.	c #ECECEC",
"f.	c #909092",
"g.	c #464648",
"h.	c #F4F4F4",
"i.	c #606061",
"j.	c #C9C9C9",
"k.	c #C8C8C9",
"l.	c #5E5E60",
"m.	c #252527",
"n.	c #8C8C8D",
"o.	c #A9A9AA",
"p.	c #434345",
"q.	c #EAEAEA",
"r.	c #5B5B5D",
"s.	c #2A2A2C",
"t.	c #A9A9A9",
"u.	c #B1B1B1",
"v.	c #D2D2D3",
"w.	c #A4A4A5",
"x.	c #535354",
"y.	c #B8B8B8",
"z.	c #808081",
"A.	c #B9B9B9",
"B.	c #D4D4D4",
"C.	c #E1E1E2",
"D.	c #D3D3D4",
"E.	c #B6B6B7",
"F.	c #767677",
"G.	c #B5B5B6",
"H.	c #FAFAFB",
"I.	c #29292B",
"J.	c #333336",
"K.	c #414143",
"L.	c #FEFEFE",
"M.	c #4A4A4B",
"N.	c #CCCCCC",
"O.	c #E0E0E1",
"P.	c #979798",
"Q.	c #E3E3E3",
"R.	c #58585A",
"S.	c #DDDDDD",
"T.	c #C2C2C2",
"U.	c #4C4C4D",
"V.	c #515152",
"W.	c #DCDCDC",
"X.	c #DEDEDE",
"Y.	c #E4E4E4",
"Z.	c #EDEDED",
"`.	c #979797",
" +	c #515153",
".+	c #F9F9F9",
"++	c #5A5A5C",
"@+	c #707072",
"#+	c #2B2B2D",
"$+	c #727274",
"%+	c #7C7C7E",
"&+	c #F9F9FA",
"*+	c #717173",
"=+	c #9F9FA1",
"-+	c #C3C3C3",
";+	c #F1F1F1",
">+	c #3E3E40",
",+	c #B1B1B2",
"'+	c #E6E6E7",
")+	c #E6E6E6",
"!+	c #828284",
"~+	c #7F7F81",
"{+	c #717172",
"]+	c #EDEDEE",
"^+	c #5A5A5B",
"/+	c #FBFBFC",
"(+	c #A3A3A4",
"_+	c #6A6A6B",
":+	c #7D7D7E",
"<+	c #89898B",
"[+	c #7D7D7F",
"}+	c #6B6B6C",
"|+	c #B4B4B4",
"1+	c #737374",
"2+	c #C5C5C6",
"3+	c #A7A7A8",
"4+	c #B3B3B4",
"5+	c #8C8C8E",
"6+	c #5B5B5C",
"                                            . . + @ @ # @ @ + . .                                             ",
"                                      . @ $ % & * = - ; - = * & % $ @ .                                       ",
"                                . @ > , ' ) ! ~ { ] ^ / ^ ] { ~ ! ) ' , > @ .                                 ",
"                            . @ , . ( _ : < [ } | 1 2 3 2 1 | } [ < : _ 4 . , @ .                             ",
"                        . + 5 6 7 8 9 0 a 6 b % > c * # * c > % b 6 a d e 8 7 6 5 + .                         ",
"                      . $ > f g h i @ % j @ . . . . . . . . . . . @ j % k i h g l 5 $ .                       ",
"                    . , m n o p q > + . . . . . . . . . . . . . . . . . + > q p r s t u .                     ",
"                  + % v w x + 5 + . . . . . . . . . . . . . . . . . . . . . + 5 + y / 1 & +                   ",
"                + , z A B C @ . . . . . . . . . . . . . . . . . . . . . . . . . @ C D E F , +                 ",
"              + , G H I % . . . . . . . . . . # J % K L M % J # . . . . . . . . . . % N O P , +               ",
"            . % Q H R > . . . . . . . . . * , ' S T U V W X Y ' , $ . . . . . . . . . 5 Z O F & .             ",
"          = 5 ` A 2 > . . . . . . . . . , t W  ...+.+.+.+.+.@. .#.$.u . . . . . . . . . 5 N E 1 5 .           ",
"        = $ 3 E B & . . . . . . . . . % %.&.+.+.+.+.+.+.+.+.+.+.+.*.=., . . . . . . . . . & -./ t $ .         ",
"        . > n x & . . . . . . . . . 5 4 ;.+.+.+.+.+.+.+.+.+.+.+.+.+.>.,.% . . . . . . . . . & y s 5 +         ",
"      '., f ).+ # . . . . . . . . $ !.~.+.+.+.+.+.+.+.+.+.+.+.+.+.+.+.{.].J . . . . . . . . # + ).^.5 .       ",
"      . 6 /.p 5 . . . . . . . . + > (.+.+.+.+.+.+.+.+.+.+.+.+.+.+.+.+.+._.J + . . . . . . . . 5 p :.6 @       ",
"    <.% 7 [.5 + . . . . . . . . $ }.|.+.+.+.+.+.+.+.+.+.+.+.+.+.+.+.+.+...1.2.. . . . . . . . + 5 [.7 , .     ",
"    = + 3.4.> . . . . . . . . . M 5.+.+.+.+.+.+.+.+.+.+.+.+.+.+.+.+.+.+.+.6.% + . . . . . . . . > 4.^ 7.@     ",
"  }.8.9.0.# + . . . . . . . . + $ a.+.+.+.+.+.+.+.+.+.+.+.+.+.+.+.+.+.+.+./.= @ . . . . . . . . + @ b.c.>     ",
"  !.M _ 5.% . . . . . . . . . # <.d.+.+.+.+.+.+.+.+.+.+.+.+.+.+.+.+.+.+.+.e.; # . . . . . . . . . % f._ , .   ",
"  = - /.a * . . . . . . . . . # g.{.+.+.+.+.+.+.+.+.+.+.+.+.+.+.+.+.+.+.+.h.g.# . . . . . . . . . $ I /.' @   ",
"  5 i.j.6 @ . . . . . . . . . # t |.+.+.+.+.+.+.+.+.+.+.+.+.+.+.+.+.+.+.+.|.t # . . . . . . . . . @ 6 k.l.$   ",
"7 m.n.o., + . . . . . . . . . # p.q.+.+.+.+.+.+.+.+.+.+.+.+.+.+.+.+.+.+.+.q.p.# . . . . . . . . . + , o.n., . ",
"r.s.t.5.% . . . . . . . . . . + J u.+.w v.{...+.+.+.+.+.+.+.+.+...{.v.w +.(.J + . . . . . . . . . . % 5.w.& . ",
"x.J y.| > . . . . . . . . . . . 5 B +.} % m S z.V A.B.C.D.E.V z.S m % } +.-.5 . . . . . . . . . . . > F.G.$ + ",
"3 + e %.c . . . . . . . . . . . # g.H.{ I.J.J % M $ '.K.6 c M % J J I.{ L.M.* . . . . . . . . . . . c %.] = @ ",
"@ <.N.N * . . . . . . . . . . . # ' O.@.P.* J . . + @ # @ + . . J + W H.Q.<.# . . . . . . . . . . . * R.r <.# ",
"* ; B.3 # . . . . . . . . . . . # <.S.+.+.T.U.% . . . . . . + % V.< +.+.W.<.# . . . . . . . . . . . # 3 B.; # ",
"@ <.N.N * . . . . . . . . . . . # <.X.+.+.+.Q.-.% @ . . . # , f ~.+.+.+.Y.K.# . . . . . . . . . . . * R.r <.# ",
"m + e %.c . . . . . . . . . . . # ; Z.+.+.+.+.@.`.6 @ . @ ' w.+.+.+.+.+.;.g.# . . . . . . . . . . . c %.] = @ ",
" +J y.| > . . . . . . . . . . . $ 2 .++.+.+.+.+.+.++c . 5 @++.+.+.+.+.+.@.l.c . . . . . . . . . . . > F.G.$ + ",
"I #+t.5.% . . . . . . . . . . . , | +.+.+.+.+.+.H.r.c . 5 $++.+.+.+.+.+.+.%+, . . . . . . . . . . . % 5.w.& . ",
"3 & n.o., + . . . . . . . . . . & P.+.+.+.+.+.+.&+r.c . 5 *++.+.+.+.+.+.+.=+& . . . . . . . . . . + , o.n., . ",
"  * i.j.6 @ . . . . . . . . . + * -++.+.+.+.+.+.&+r.c . 5 *++.+.+.+.+.+.+.k.# + . . . . . . . . . @ 6 k.l.$   ",
"  + <./.a * . . . . . . . . . * m Z.+.+.+.+.+.+.&+r.c . 5 *++.+.+.+.+.+.+.;+!.* . . . . . . . . . $ I /.' @   ",
"  K.% _ 5.% . . . . . . . . . , l +.+.+.+.+.+.+.&+r.c . 5 *++.+.+.+.+.+.+.+.,., . . . . . . . . . % f._ , .   ",
"  >+J 9.0.# + . . . . . . . + > ,++.+.+.+.+.+.+.&+r.c . 5 *++.+.+.+.+.+.+.+.,+> + . . . . . . . + @ b.c.>     ",
"    + + 3.4.> . . . . . . . @ <.'++.+.+.+.+.+.+.&+r.c . 5 *++.+.+.+.+.+.+.+.)+<.@ . . . . . . . > 4.^ 7.@     ",
"    = , 7 [.5 + . . . . . . + $ !+@.+.+.+.+.+.+.&+r.c . 5 *++.+.+.+.+.+.+.@.!+$ + . . . . . . + 5 [.7 , .     ",
"      @ 6 /.p 5 . . . . . . . + % ~+>.+.+.+.+.+.&+r.c . 5 *++.+.+.+.+.+..+~+% + . . . . . . . 5 p :.6 @       ",
"      . 5 f ).+ # . . . . . . . + % {+]++.+.+.+.&+r.c . 5 *++.+.+.+.+.q.-.% + . . . . . . . # + ).^.5 .       ",
"        + > n x & . . . . . . . . . % ^+/ +.+.+.&+r.c . 5 *++.+.+.+.D.].% . . . . . . . . . & y s 5 +         ",
"        . $ 3 E B & . . . . . . . . . q <.o.+.+./+r.c . 5 *++.+...(+'.> . . . . . . . . . & -./ t $ .         ",
"          . 5 ` A 2 > . . . . . . . . . * 5 _+: ..l.c . 5 | L.k.v 5 * . . . . . . . . . 5 N E 1 5 .           ",
"            . % Q H R > . . . . . . . . . + 5 . 9.!.# . * a c.@ 5 + . . . . . . . . . 5 Z O :+& .             ",
"              + , G H I % . . . . . . . . . . @ > # . . = * > @ . . . . . . . . . . % N O <+b +               ",
"                + , z A B C @ . . . . . . . . . . . . . . . . . . . . . . . . . @ C D E [+, +                 ",
"                  + % v w x + 5 + . . . . . . . . . . . . . . . . . . . . . + 5 + y / 1 & +                   ",
"                    . , m n o p q > + . . . . . . . . . . . . . . . . . + > q }+r |+g.u .                     ",
"                      . $ > f g h i @ % j @ . . . . . . . . . . . @ j % + i h ).1+5 $ .                       ",
"                        . + 5 6 7 8 9 0 a 6 b % > c * # * c > % , 6 a } T.2+T 6 5 + .                         ",
"                            . @ , . ( _ : < [ } | 1 2 3 2 1 F.} o.b.: 3+p + , @ .                             ",
"                                . @ > , ' ) ! ~ { ] ^ / ^ ] 4+w.5+6+' b J + .                                 ",
"                                      . @ $ % & * = - ; - = $ & b $ @ .                                       ",
"                                            . . + @ @ # @ @ + . .                                             "};
